<svg width="116" height="12" viewBox="0 0 116 12" fill="none" xmlns="http://www.w3.org/2000/svg">
<g clip-path="url(#clip0)">
<path d="M4.64076 10.7931L3.33391 8.81505H1.94176V10.7931H0V2.8584H3.86012C5.48405 2.8584 6.70558 4.25055 6.70558 5.98545C6.70558 7.133 6.1318 7.94835 5.28851 8.40133L7.03474 10.7946L4.64076 10.7931ZM1.94176 7.06958H3.55436C4.20137 7.06958 4.7389 6.64152 4.7389 5.98243C4.7389 5.67154 4.6155 5.37336 4.39581 5.15338C4.17611 4.9334 3.87809 4.80962 3.5672 4.80922H1.94176V7.06958Z" fill="#292929"/>
<path d="M17.0264 9.70667H13.1761L12.6385 10.7931H10.4922L14.4391 2.8584H15.8804L19.6778 10.7961H17.5639L17.0264 9.70667ZM16.2812 8.15521L15.0967 5.60344L13.9726 8.15521H16.2812Z" fill="#292929"/>
<path d="M31.0226 6.81214C31.0239 7.33433 30.9222 7.85164 30.7233 8.33448C30.5244 8.81731 30.2322 9.25617 29.8635 9.62594C29.4948 9.99572 29.0567 10.2891 28.5745 10.4894C28.0922 10.6897 27.5752 10.7929 27.053 10.7931H23.291V2.8584H27.053C29.4832 2.8584 31.0226 4.62652 31.0226 6.81214ZM29.1171 6.81214C29.1171 5.62685 28.2375 4.76091 27.2365 4.76091H25.1981V8.88828H27.2365C28.2255 8.85129 29.1171 7.99667 29.1171 6.81214Z" fill="#292929"/>
<path d="M42.5877 2.8584V6.754C42.5877 9.30653 40.8052 11.0044 38.5584 11.0044C36.2988 11.0044 34.5156 9.30653 34.5156 6.754V2.8584H36.4574V6.754C36.4574 7.99969 37.3369 9.03852 38.5584 9.03852C39.7664 9.03852 40.6459 7.99969 40.6459 6.754V2.8584H42.5877Z" fill="#292929"/>
<path d="M54.166 9.30344H54.154C53.7282 9.87714 53.1626 10.3323 52.5112 10.6256C51.8597 10.9189 51.144 11.0406 50.4323 10.979C49.7205 10.9174 49.0363 10.6747 48.4449 10.2739C47.8535 9.87311 47.3745 9.3276 47.0535 8.68931C46.7326 8.05103 46.5804 7.34121 46.6114 6.62745C46.6424 5.91368 46.8555 5.21974 47.2306 4.61168C47.6057 4.00362 48.1302 3.50169 48.7541 3.15368C49.3781 2.80567 50.0807 2.62316 50.7951 2.62354C52.176 2.62354 53.2993 3.19731 54.0694 4.23613L52.6146 5.16398C52.1269 4.711 51.5894 4.45432 50.7951 4.45432C50.4067 4.45501 50.0245 4.55189 49.6826 4.73633C49.3408 4.92076 49.05 5.187 48.8361 5.51125C48.6222 5.83551 48.492 6.20769 48.4571 6.59454C48.4222 6.9814 48.4836 7.37088 48.6359 7.7282C48.7882 8.08552 49.0267 8.39954 49.33 8.64223C49.6333 8.88491 49.9919 9.0487 50.374 9.11895C50.756 9.1892 51.1494 9.16373 51.5192 9.04482C51.889 8.92591 52.2236 8.71726 52.493 8.4375V7.60704H50.087V6.07975H54.1638L54.166 9.30344Z" fill="#292929"/>
<path d="M63.813 9.70667H59.9687L59.4342 10.7931H57.2803L61.225 2.8584H62.6662L66.4659 10.7961H64.352L63.813 9.70667ZM63.0686 8.15521L61.8848 5.60344L60.7599 8.15521H63.0686Z" fill="#292929"/>
<path d="M83.3425 9.30344H83.3312C82.9055 9.87704 82.3401 10.3321 81.6888 10.6254C81.0375 10.9187 80.3219 11.0405 79.6103 10.9791C78.8986 10.9176 78.2145 10.6751 77.6231 10.2745C77.0316 9.87397 76.5526 9.32872 76.2315 8.69066C75.9103 8.05261 75.7579 7.34298 75.7885 6.62933C75.8192 5.91569 76.032 5.22176 76.4067 4.61361C76.7814 4.00545 77.3054 3.5033 77.929 3.15496C78.5527 2.80662 79.255 2.62368 79.9694 2.62354C81.3509 2.62354 82.4728 3.19731 83.2414 4.23613L81.7896 5.16398C81.3026 4.711 80.7621 4.45432 79.9694 4.45432C79.5809 4.45501 79.1987 4.55189 78.8569 4.73632C78.515 4.92076 78.2242 5.187 78.0103 5.51125C77.7965 5.83551 77.6663 6.20769 77.6313 6.59454C77.5964 6.9814 77.6578 7.37088 77.8101 7.7282C77.9625 8.08552 78.2009 8.39954 78.5042 8.64223C78.8075 8.88491 79.1661 9.0487 79.5482 9.11895C79.9302 9.1892 80.3237 9.16373 80.6935 9.04482C81.0632 8.92591 81.3978 8.71726 81.6673 8.4375V7.60704H79.2612V6.07975H83.338L83.3425 9.30344Z" fill="#292929"/>
<path d="M92.3566 10.7931L91.0482 8.81505H89.6583V10.7931H87.7158V2.8584H91.5759C93.1999 2.8584 94.4214 4.25055 94.4214 5.98545C94.4214 7.133 93.8476 7.94835 93.0028 8.40133L94.7506 10.7946L92.3566 10.7931ZM89.6583 7.06958H91.2709C91.9179 7.06958 92.454 6.64152 92.454 5.98243C92.4541 5.8284 92.4238 5.67586 92.3649 5.53352C92.3061 5.39118 92.2197 5.26184 92.1108 5.15289C92.0019 5.04394 91.8727 4.95751 91.7304 4.89854C91.5881 4.83958 91.4355 4.80922 91.2815 4.80922H89.6583V7.06958Z" fill="#292929"/>
<path d="M100.818 4.56537V5.98243H104.029V7.67959H100.818V9.09665H104.883V10.7931H98.9092V2.8584H104.883V4.56839L100.818 4.56537Z" fill="#292929"/>
<path d="M116 10.7931H109.333V8.85129L113.325 4.71108H109.333V2.8584H116V4.7141L111.848 8.85431H116V10.7931Z" fill="#292929"/>
<path d="M99.8339 1.04604C99.8233 1.01434 99.8143 0.983381 99.8075 0.953183C99.7478 0.70329 99.8633 0.477557 100.019 0.288816C100.124 0.151491 100.273 0.0540702 100.442 0.0124998C100.514 -0.00692964 100.589 -0.00606935 100.661 0.0149858C100.732 0.036041 100.796 0.0764695 100.846 0.131785C100.962 0.24352 101.019 0.20275 101.162 0.288061C101.634 0.570417 101.451 1.17892 101.171 1.4205C101.014 1.5564 100.739 1.6636 100.578 1.5715C100.449 1.496 100.276 1.52695 100.136 1.47486C99.9713 1.41069 99.889 1.20987 99.8339 1.04604Z" fill="#292929"/>
<path d="M102.455 1.2271C102.515 1.32571 102.595 1.40997 102.691 1.47391C102.787 1.53784 102.896 1.57988 103.01 1.59703C103.075 1.61021 103.141 1.61326 103.206 1.60609C103.499 1.56759 103.706 1.4468 103.816 1.2573C103.927 1.0678 103.952 0.904732 103.912 0.638985C103.877 0.484551 103.795 0.344532 103.678 0.237344C103.626 0.181312 103.559 0.141902 103.485 0.1241C103.396 0.106736 103.317 0.166378 103.23 0.164113C103.124 0.164113 103.036 0.108246 102.928 0.105226C102.656 0.0991862 102.635 0.20488 102.486 0.392111C102.303 0.627659 102.316 0.961355 102.455 1.2271Z" fill="#292929"/>
</g>
<defs>
<clipPath id="clip0">
<rect width="116" height="11.0021" fill="white"/>
</clipPath>
</defs>
</svg>
