<svg width="170" height="17" viewBox="0 0 170 17" fill="none" xmlns="http://www.w3.org/2000/svg">
<g clip-path="url(#clip0)">
<path d="M7.49501 16.1954L5.59451 13.3188H3.56995V16.1954H0.746094V4.65625H6.35976C8.72139 4.65625 10.4978 6.68081 10.4978 9.20384C10.4978 10.8727 9.66341 12.0584 8.43703 12.7172L10.9765 16.1976L7.49501 16.1954ZM3.56995 10.7805H5.91511C6.85602 10.7805 7.63774 10.1579 7.63774 9.19945C7.63774 8.74732 7.45829 8.31368 7.13879 7.99378C6.8193 7.67387 6.38589 7.49386 5.93377 7.49328H3.56995V10.7805Z" fill="#E1DFD3"/>
<path d="M25.5064 14.6155H19.907L19.1253 16.1954H16.0039L21.7438 4.65625H23.8398L29.3623 16.1998H26.2881L25.5064 14.6155ZM24.4228 12.3593L22.7001 8.64829L21.0653 12.3593H24.4228Z" fill="#E1DFD3"/>
<path d="M45.861 10.4061C45.8629 11.1655 45.7149 11.9178 45.4257 12.62C45.1365 13.3221 44.7116 13.9604 44.1754 14.4981C43.6391 15.0358 43.0021 15.4626 42.3008 15.7538C41.5994 16.0451 40.8475 16.1951 40.0881 16.1954H34.6172V4.65625H40.0881C43.6223 4.65625 45.861 7.22758 45.861 10.4061ZM43.0898 10.4061C43.0898 8.68233 41.8108 7.42301 40.3549 7.42301H37.3905V13.4253H40.3549C41.7932 13.3715 43.0898 12.1287 43.0898 10.4061Z" fill="#E1DFD3"/>
<path d="M62.6794 4.65625V10.3215C62.6794 14.0336 60.0872 16.5028 56.8198 16.5028C53.5337 16.5028 50.9404 14.0336 50.9404 10.3215V4.65625H53.7643V10.3215C53.7643 12.1331 55.0434 13.6438 56.8198 13.6438C58.5765 13.6438 59.8555 12.1331 59.8555 10.3215V4.65625H62.6794Z" fill="#E1DFD3"/>
<path d="M79.5187 14.0298H79.5011C78.8819 14.8642 78.0594 15.5261 77.1121 15.9526C76.1647 16.3791 75.1239 16.5561 74.0887 16.4665C73.0536 16.377 72.0586 16.024 71.1986 15.4411C70.3385 14.8583 69.6419 14.065 69.1751 13.1367C68.7084 12.2085 68.487 11.1762 68.5321 10.1382C68.5772 9.1002 68.8872 8.09101 69.4327 7.20673C69.9781 6.32244 70.7409 5.5925 71.6482 5.0864C72.5556 4.5803 73.5775 4.31488 74.6164 4.31543C76.6245 4.31543 78.2582 5.14985 79.3781 6.66059L77.2624 8.00993C76.5532 7.35118 75.7715 6.97789 74.6164 6.97789C74.0516 6.97889 73.4957 7.11978 72.9986 7.388C72.5014 7.65622 72.0785 8.0434 71.7675 8.51496C71.4565 8.98651 71.2671 9.52777 71.2163 10.0904C71.1655 10.6529 71.2549 11.2194 71.4764 11.739C71.6979 12.2586 72.0446 12.7153 72.4857 13.0682C72.9268 13.4212 73.4484 13.6594 74.0039 13.7615C74.5595 13.8637 75.1317 13.8267 75.6695 13.6537C76.2072 13.4808 76.6938 13.1774 77.0857 12.7705V11.5628H73.5866V9.34171H79.5154L79.5187 14.0298Z" fill="#E1DFD3"/>
<path d="M93.5482 14.6155H87.9576L87.1802 16.1954H84.0479L89.7845 4.65625H91.8804L97.4063 16.1998H94.3321L93.5482 14.6155ZM92.4656 12.3593L90.7441 8.64829L89.1082 12.3593H92.4656Z" fill="#E1DFD3"/>
<path d="M121.949 14.0298H121.933C121.314 14.864 120.491 15.5258 119.544 15.9524C118.597 16.3789 117.556 16.556 116.521 16.4666C115.487 16.3773 114.492 16.0246 113.632 15.4421C112.771 14.8595 112.075 14.0666 111.608 13.1387C111.141 12.2108 110.919 11.1788 110.964 10.141C111.008 9.10311 111.318 8.09396 111.863 7.20953C112.407 6.32511 113.17 5.59485 114.077 5.08827C114.983 4.58169 116.005 4.31563 117.044 4.31543C119.053 4.31543 120.684 5.14985 121.802 6.66059L119.691 8.00993C118.983 7.35118 118.196 6.97789 117.044 6.97789C116.479 6.97889 115.923 7.11978 115.426 7.388C114.929 7.65622 114.506 8.0434 114.195 8.51496C113.884 8.98651 113.694 9.52777 113.644 10.0904C113.593 10.6529 113.682 11.2194 113.904 11.739C114.125 12.2586 114.472 12.7153 114.913 13.0682C115.354 13.4212 115.876 13.6594 116.431 13.7615C116.987 13.8637 117.559 13.8267 118.097 13.6537C118.634 13.4808 119.121 13.1774 119.513 12.7705V11.5628H116.014V9.34171H121.943L121.949 14.0298Z" fill="#E1DFD3"/>
<path d="M135.058 16.1954L133.156 13.3188H131.135V16.1954H128.31V4.65625H133.923C136.285 4.65625 138.061 6.68081 138.061 9.20384C138.061 10.8727 137.227 12.0584 135.998 12.7172L138.54 16.1976L135.058 16.1954ZM131.135 10.7805H133.48C134.421 10.7805 135.2 10.1579 135.2 9.19945C135.2 8.97544 135.156 8.7536 135.071 8.54661C134.985 8.33961 134.859 8.15151 134.701 7.99307C134.543 7.83462 134.355 7.70893 134.148 7.62318C133.941 7.53742 133.719 7.49328 133.495 7.49328H131.135V10.7805Z" fill="#E1DFD3"/>
<path d="M147.364 7.13865V9.19945H152.033V11.6676H147.364V13.7284H153.275V16.1954H144.587V4.65625H153.275V7.14304L147.364 7.13865Z" fill="#E1DFD3"/>
<path d="M169.442 16.1954H159.746V13.3715L165.552 7.35055H159.746V4.65625H169.442V7.35494L163.403 13.3759H169.442V16.1954Z" fill="#E1DFD3"/>
<path d="M145.932 2.02141C145.916 1.9753 145.903 1.93028 145.893 1.88636C145.807 1.52295 145.975 1.19468 146.201 0.920195C146.354 0.720487 146.571 0.57881 146.816 0.518355C146.92 0.4901 147.03 0.491351 147.134 0.521971C147.238 0.552591 147.332 0.611385 147.404 0.691829C147.572 0.854321 147.656 0.795031 147.863 0.919096C148.55 1.32972 148.284 2.21464 147.876 2.56598C147.648 2.7636 147.248 2.91951 147.013 2.78556C146.827 2.67577 146.574 2.72078 146.371 2.64503C146.132 2.5517 146.012 2.25966 145.932 2.02141Z" fill="#E1DFD3"/>
<path d="M149.744 2.28421C149.831 2.42762 149.948 2.55016 150.088 2.64314C150.227 2.73612 150.385 2.79725 150.551 2.82219C150.645 2.84135 150.741 2.8458 150.837 2.83537C151.263 2.77937 151.564 2.60371 151.724 2.32813C151.884 2.05255 151.921 1.8154 151.863 1.42893C151.811 1.20434 151.693 1.00072 151.523 0.844837C151.448 0.76335 151.35 0.706038 151.242 0.680149C151.112 0.654897 150.998 0.741632 150.871 0.738338C150.717 0.738338 150.59 0.657092 150.432 0.652701C150.036 0.643917 150.006 0.797625 149.789 1.06991C149.522 1.41246 149.542 1.89774 149.744 2.28421Z" fill="#E1DFD3"/>
</g>
<defs>
<clipPath id="clip0">
<rect width="168.696" height="16" fill="white" transform="translate(0.746094 0.5)"/>
</clipPath>
</defs>
</svg>
